<?xml version="1.0" encoding="utf-8"?>
<!-- Generator: Adobe Illustrator 26.3.1, SVG Export Plug-In . SVG Version: 6.00 Build 0)  -->
<svg version="1.1" id="Capa_1" xmlns="http://www.w3.org/2000/svg" xmlns:xlink="http://www.w3.org/1999/xlink" x="0px" y="0px"
	 viewBox="0 0 500 308" style="enable-background:new 0 0 500 308;" xml:space="preserve">
<style type="text/css">
	.st0{fill:#424E56;}
	.st1{fill:#FFFFFF;}
	.st2{font-family:'Shackleton-Regular';}
	.st3{font-size:46.6824px;}
</style>
<g>
	<path class="st0" d="M127.88,151.65c-0.18-1.99-0.85-3.15-2.54-3.15c-5.69,0-8.11,12.34-8.11,17.18c0,3.63,1.69,4.6,4.05,4.6
		c3.69,0,5.74-5.8,6.47-11.67c-1.76,0-2.54-1.27-2.54-2.72C125.22,154.14,126.25,152.26,127.88,151.65z"/>
	<path class="st0" d="M168.3,166.84c0,3.63,1.99,4.29,3.51,4.29c1.39,0,2.66-1.33,3.81-2.96c0.06-0.66,0.18-1.33,0.36-2.06
		l3.45-16.09c-0.97-0.79-2.12-1.03-2.96-1.03C171.93,149,168.3,158.61,168.3,166.84z"/>
	<path class="st0" d="M153.17,151.65c-0.18-1.99-0.85-3.15-2.54-3.15c-5.69,0-8.11,12.34-8.11,17.18c0,3.63,1.69,4.6,4.05,4.6
		c3.69,0,5.74-5.8,6.47-11.67c-1.76,0-2.54-1.27-2.54-2.72C150.51,154.14,151.54,152.26,153.17,151.65z"/>
	<path class="st0" d="M404.06,160.37c1.45,0.48,2,1.57,2,3.39c-0.06,2.3-1.88,3.87-3.99,3.87c-0.23,0-0.47-0.05-0.7-0.09
		c-0.38,0.43-0.78,0.88-1.2,1.34c0.59,2.26,2.28,3.35,4.87,3.35c2.06,0,5.02-2.54,5.02-7.2c0-3.75-2.72-6.96-2.85-14.52
		C406.24,153.47,405.39,157.34,404.06,160.37z"/>
	<path class="st1" d="M481.17,142.93c-0.42-3.81-0.74-21.45-14.28-21.45H33.11c-13.53,0-13.86,17.64-14.28,21.45
		c-0.88,8.05-4.65,11.07-4.65,11.07s3.77,3.02,4.65,11.07c0.42,3.81,0.74,21.45,14.28,21.45h433.78c13.53,0,13.86-17.64,14.28-21.45
		c0.88-8.05,4.65-11.07,4.65-11.07S482.04,150.98,481.17,142.93z M43.27,146.15c-1.66,0.86-2.57,3.32-1.6,5.43
		c0.97,2.11,3.09,2.42,3.09,2.42s-2.12,0.31-3.09,2.42c-0.97,2.11-0.06,4.57,1.6,5.43c2.5,1.31,4.92-0.46,4.19-2.56
		c-0.41,0.66-2.38,1.31-3.21-0.3c-0.76-1.48,0.22-3.18,2.12-3.18s3.56,1.42,3.56,3.99c0,3.19-1.97,4.78-4.77,4.78
		C38.93,164.59,27.2,154,27.2,154s11.73-10.59,17.95-10.59c2.8,0,4.77,1.59,4.77,4.78c0,2.57-1.66,3.99-3.56,3.99
		s-2.88-1.7-2.12-3.18c0.83-1.61,2.8-0.96,3.21-0.3C48.19,146.61,45.77,144.84,43.27,146.15z M454.84,164.59
		c-2.8,0-4.77-1.59-4.77-4.78c0-2.57,1.66-3.99,3.56-3.99c1.9,0,2.88,1.7,2.12,3.18c-0.83,1.61-2.8,0.96-3.21,0.3
		c-0.73,2.09,1.69,3.86,4.19,2.56c1.66-0.86,2.57-3.32,1.6-5.43c-0.97-2.11-3.09-2.42-3.09-2.42s2.12-0.31,3.09-2.42
		c0.97-2.11,0.06-4.57-1.6-5.43c-2.5-1.31-4.92,0.46-4.19,2.56c0.41-0.66,2.38-1.31,3.21,0.3c0.76,1.48-0.22,3.18-2.12,3.18
		c-1.9,0-3.56-1.42-3.56-3.99c0-3.19,1.97-4.78,4.77-4.78c6.23,0,17.95,10.59,17.95,10.59S461.07,164.59,454.84,164.59z"/>
	<path class="st0" d="M461.34,159.24c2.45-1.49,5.07-3.41,7.31-5.24c-2.24-1.83-4.86-3.75-7.31-5.24c0.18,1.31,0.02,2.69-0.56,3.95
		c-0.22,0.49-0.48,0.91-0.77,1.29c0.28,0.38,0.54,0.8,0.77,1.29C461.36,156.55,461.53,157.93,461.34,159.24z"/>
	<path class="st0" d="M38.66,148.76c-2.45,1.49-5.07,3.41-7.31,5.24c2.24,1.83,4.86,3.75,7.31,5.24c-0.19-1.31-0.02-2.69,0.56-3.95
		c0.22-0.49,0.48-0.91,0.77-1.29c-0.28-0.38-0.54-0.8-0.77-1.29C38.64,151.45,38.47,150.07,38.66,148.76z"/>
	<rect x="75.34" y="111.92" class="st1" width="349.33" height="5.05"/>
	<rect x="75.34" y="191.03" class="st1" width="349.33" height="5.05"/>
	<path class="st1" d="M250,16.33c-25.26,0-45.74,20.48-45.74,45.74s20.48,45.74,45.74,45.74c25.26,0,45.74-20.48,45.74-45.74
		S275.26,16.33,250,16.33z M250,103.92c-23.08,0-41.85-18.77-41.85-41.85c0-23.08,18.77-41.85,41.85-41.85S291.85,39,291.85,62.07
		C291.85,85.15,273.07,103.92,250,103.92z"/>
	<path class="st1" d="M221.79,90.31c-5.55-5.55,13.45-16.91,23.19-25.57c0.01,0,0.03,0,0.04,0c0.82,0,1.54-0.11,2.09-0.24
		c0.35,0.36,0.8,0.84,1.34,1.41C239.67,75.17,227.57,96.09,221.79,90.31z"/>
	<path class="st1" d="M277.24,89.01c-4.46,4.46-11.4-7.72-20.18-16.97c-6.3-6.64-9.39-9.88-9.39-9.88h0l-0.1,0.1
		c0,0-4.27,1.95-8.33-2.11c-2.14-2.14-20.06-22.31-17.04-25.33c0.02-0.02,0.04-0.03,0.06-0.05c0.01-0.02,0.02-0.04,0.03-0.05
		c1.78-1.78,5.64,1.22,9.39,4.79c0.06,0.05,0.12,0.11,0.17,0.16c0.29,0.27,0.57,0.55,0.86,0.83c0.07,0.07,0.14,0.14,0.22,0.21
		c0.33,0.33,0.66,0.65,0.98,0.97c4.35,4.35,17.11,17.11,17.11,17.11C270.65,78.41,281.47,84.77,277.24,89.01z"/>
	<path class="st1" d="M271.11,51.57c-1.15,1.17-2.25,2.2-3.13,2.94c-4.37,3.67-8.34,3.8-10.99,2.47c-0.69,0.71-1.51,1.57-2.39,2.49
		c-0.66-0.65-1.3-1.27-1.99-1.96c0.91-0.88,1.77-1.7,2.49-2.39c-1.36-2.65-1.25-6.65,2.44-11.05c0.74-0.88,1.76-1.98,2.94-3.13
		c3.51-3.49,8.5-7.6,11.38-8.1c0.14-0.02,0.27,0.05,0.33,0.18c0.06,0.13,0.01,0.27-0.09,0.36c-0.05,0.04-0.11,0.09-0.16,0.14
		c-0.01,0.02-0.02,0.04-0.04,0.06c-3.14,2.68-7.01,6.33-9.78,9.08c-1.57,1.56-2.77,2.82-3.23,3.41c-0.38,0.49-0.33,0.98,0.12,1.31
		c0.45,0.33,1.1,0.23,1.55-0.22c0.37-0.37,0.78-0.79,1.26-1.26c3.76-3.76,10.71-10.41,12.81-10.96c0.17-0.04,0.76,0.28,0.32,0.72
		c-1.1,1.11-2.27,2.29-3.47,3.49c-3.56,3.55-7.4,7.36-10.65,10.61c-0.68,0.68-0.75,1.28-0.28,1.76c0.47,0.47,1.08,0.4,1.76-0.28
		c3.24-3.24,7.03-7.07,10.58-10.62c1.21-1.21,2.39-2.39,3.52-3.5c0.44-0.44,0.76,0.15,0.72,0.32c-0.55,2.1-7.16,9.01-10.93,12.78
		c-0.48,0.49-0.91,0.91-1.3,1.29c-0.45,0.45-0.55,1.1-0.22,1.55c0.33,0.46,0.83,0.51,1.31,0.12c0.58-0.46,1.84-1.66,3.41-3.23
		c2.76-2.78,6.4-6.65,9.08-9.78c0.02-0.02,0.04-0.02,0.06-0.04c0.04-0.05,0.09-0.11,0.14-0.16c0.09-0.11,0.23-0.15,0.36-0.09
		c0.13,0.06,0.2,0.19,0.18,0.33C278.71,43.08,274.59,48.06,271.11,51.57z"/>
	<path class="st1" d="M254.14,248.62c-2.21,5.66-1.56,15.9-1.41,17.89c0.24,3.15,0.73,5.01,1.1,6.02v0c0,0,0.4,0.85,2.19,1.88
		c2.16,1.23,4.02,1.84,5.25,2.24c1.43,0.47,2.66,0.87,2.66,2.26c0,2.36-4.78,4.76-13.93,4.76c-9.15,0-13.93-2.39-13.93-4.76
		c0-1.38,1.23-1.79,2.66-2.26c1.23-0.4,3.08-1.01,5.25-2.24c1.84-1.05,2.21-1.92,2.21-1.93c0.35-0.96,0.84-2.83,1.08-5.97
		c0.15-2,0.8-12.24-1.41-17.89c-1.75-4.48-4.09-7.23-5.81-9.23l0,0c-0.49-0.44-0.97-0.91-1.4-1.42c-2.01-2.38-3.23-5.4-3.53-8.71
		c-0.82-9.04,2.41-18.83,2.78-19.92l0.41-1.16h23.38l0.41,1.15c0.37,1.09,3.6,10.89,2.78,19.93c-0.3,3.31-1.52,6.33-3.53,8.71
		c-0.43,0.51-0.9,0.98-1.4,1.42l0,0C258.23,241.4,255.89,244.14,254.14,248.62z M262.54,220.58c-0.66-5.01-1.94-9.18-2.32-10.33
		h-20.45c-0.39,1.18-1.66,5.34-2.32,10.33H262.54z"/>
	<path class="st1" d="M382.32,107.81c3.1,0,7.61-0.41,11.47-2.38c2.39-1.2,4.37-3.16,5.42-5.38c1.16-2.39,1.19-4.61,1.01-6.06
		c-0.24-1.72-0.78-3.12-1.55-4.08c-0.32-0.55-1.52-1.49-2.44-1.72c-0.27-0.06-0.54-0.1-0.81-0.1c-1.03,0-1.99,0.48-2.57,1.3
		c-0.55,0.77-0.69,1.74-0.38,2.66c0.42,1.23,1.17,1.99,1.77,2.61c0.95,0.96,1.42,1.45,0.56,3.28c-1.17,2.56-5.08,5.3-12.51,5.3
		c-6.09,0-13.32-1.9-20.94-5.49c-8.66-4.08-17.74-9.9-27.77-17.81c-3.56-2.82-5.76-4.92-7.52-6.62c-2.12-2.04-3.65-3.51-6.23-5.01
		c-3.78-2.14-8.14-3.27-12.64-3.27c-4.62,0-8.86,1.14-12.54,3.26c-5.68,3.28-4.27,7.91-0.78,5.12c3.64-2.91,8.09-4.49,13.01-4.49
		c10.03,0,20.49,6.94,20.64,18.54c-0.03,3.25-0.95,6.38-2.64,9.03c-0.98,1.5-1.99,2.68-3.08,3.61c-1.18,1.01-2.46,1.77-3.92,2.33
		c-1.43,0.55-2.96,0.83-4.54,0.83c-1.52,0-3.02-0.26-4.44-0.77c-1.43-0.51-2.76-1.27-3.95-2.25l-0.87-0.79
		c-0.09-0.09-0.79-0.88-0.79-0.88l-0.58-0.82l-0.19-0.33c-0.11-0.18-0.22-0.37-0.31-0.56c-1.3-2.64-1.37-5.85-0.19-8.41
		c0.6-1.34,1.47-2.5,2.58-3.48c1.01-0.83,2.34-1.43,3.57-1.58c0.39-0.06,0.76-0.09,1.12-0.09c2.34,0,4.65,1.19,5.88,3.01
		c0.65,1.01,0.96,2.28,0.84,3.48c-0.06,0.54-0.33,0.74-1.27,1.35c-0.48,0.31-1.04,0.67-1.68,1.19c-1.29,1.04-1.56,2.14-1.55,2.88
		c0.01,0.94,0.47,1.83,1.25,2.44c0.48,0.38,1.06,0.57,1.71,0.57c1.08,0,2.34-0.56,3.55-1.57c1.67-1.4,2.77-3.73,3.01-6.37
		c0.22-2.37-0.39-4.77-1.71-6.75c-2.23-3.21-5.93-5.12-9.93-5.12c-0.65,0-1.3,0.05-1.93,0.16c-2.23,0.34-4.27,1.28-6.05,2.8
		c-1.61,1.43-2.9,3.21-3.74,5.16c-1.73,3.88-1.58,8.52,0.38,12.41c0.15,0.31,0.33,0.61,0.52,0.92l0.25,0.43
		c0.34,0.49,0.68,0.95,1.01,1.36l0.36,0.39c0.19,0.22,0.39,0.43,0.69,0.73l1.14,1.01c1.65,1.33,3.45,2.34,5.4,3.01
		c1.86,0.64,3.81,0.97,5.79,0.97c2.2,0,4.32-0.4,6.3-1.19c1.85-0.71,3.72-1.85,5.24-3.2c1.38-1.2,2.64-2.7,3.83-4.57
		c2.1-3.36,3.21-7.29,3.21-11.36c-0.04-1.7-0.24-3.3-0.61-4.83l0.17,0.14c10.14,8.27,19.37,14.4,28.22,18.76
		c6.22,3.06,12.12,5.04,17.54,5.88C377.78,107.52,379.73,107.81,382.32,107.81z"/>
	<path class="st1" d="M117.68,107.81c-3.1,0-7.61-0.41-11.47-2.38c-2.39-1.2-4.37-3.16-5.42-5.38c-1.16-2.39-1.19-4.61-1.01-6.06
		c0.24-1.72,0.78-3.12,1.55-4.08c0.32-0.55,1.52-1.49,2.43-1.72c0.27-0.06,0.54-0.1,0.81-0.1c1.03,0,1.99,0.48,2.57,1.3
		c0.55,0.77,0.69,1.74,0.38,2.66c-0.42,1.23-1.17,1.99-1.77,2.61c-0.95,0.96-1.42,1.45-0.56,3.28c1.17,2.56,5.08,5.3,12.51,5.3
		c6.09,0,13.32-1.9,20.94-5.49c8.66-4.08,17.74-9.9,27.77-17.81c3.56-2.82,5.76-4.92,7.52-6.62c2.12-2.04,3.65-3.51,6.23-5.01
		c3.78-2.14,8.15-3.27,12.64-3.27c4.62,0,8.86,1.14,12.54,3.26c5.68,3.28,4.27,7.91,0.78,5.12c-3.64-2.91-8.09-4.49-13.01-4.49
		c-10.03,0-20.49,6.94-20.64,18.54c0.03,3.25,0.95,6.38,2.64,9.03c0.98,1.5,1.99,2.68,3.08,3.61c1.18,1.01,2.46,1.77,3.92,2.33
		c1.43,0.55,2.96,0.83,4.54,0.83c1.52,0,3.02-0.26,4.44-0.77c1.43-0.51,2.76-1.27,3.95-2.25l0.87-0.79
		c0.09-0.09,0.79-0.88,0.79-0.88l0.58-0.82l0.19-0.33c0.11-0.18,0.22-0.37,0.31-0.56c1.3-2.64,1.37-5.85,0.19-8.41
		c-0.6-1.34-1.47-2.5-2.58-3.48c-1.01-0.83-2.34-1.43-3.57-1.58c-0.39-0.06-0.76-0.09-1.12-0.09c-2.34,0-4.65,1.19-5.88,3.01
		c-0.65,1.01-0.96,2.28-0.84,3.48c0.06,0.54,0.33,0.74,1.27,1.35c0.47,0.31,1.04,0.67,1.68,1.19c1.29,1.04,1.56,2.14,1.55,2.88
		c-0.01,0.94-0.47,1.83-1.25,2.44c-0.48,0.38-1.06,0.57-1.71,0.57c-1.08,0-2.34-0.56-3.55-1.57c-1.67-1.4-2.77-3.73-3.01-6.37
		c-0.22-2.37,0.39-4.77,1.71-6.75c2.23-3.21,5.93-5.12,9.93-5.12c0.65,0,1.3,0.05,1.93,0.16c2.23,0.34,4.27,1.28,6.05,2.8
		c1.61,1.43,2.9,3.21,3.74,5.16c1.73,3.88,1.58,8.52-0.38,12.41c-0.15,0.31-0.33,0.61-0.52,0.92l-0.25,0.43
		c-0.34,0.49-0.68,0.95-1.01,1.36l-0.36,0.39c-0.19,0.22-0.39,0.43-0.69,0.73l-1.14,1.01c-1.65,1.33-3.45,2.34-5.4,3.01
		c-1.86,0.64-3.81,0.97-5.79,0.97c-2.2,0-4.32-0.4-6.3-1.19c-1.85-0.71-3.72-1.85-5.24-3.2c-1.38-1.2-2.64-2.7-3.83-4.57
		c-2.1-3.36-3.21-7.29-3.21-11.36c0.04-1.7,0.24-3.3,0.61-4.83l-0.17,0.14c-10.14,8.27-19.37,14.4-28.22,18.76
		c-6.22,3.06-12.12,5.04-17.54,5.88C122.22,107.52,120.27,107.81,117.68,107.81z"/>
	<path class="st1" d="M295.74,245.93c0-25.26-20.48-45.74-45.74-45.74c-25.26,0-45.74,20.48-45.74,45.74s20.48,45.74,45.74,45.74
		C275.26,291.67,295.74,271.19,295.74,245.93z M291.85,245.93c0,23.08-18.77,41.85-41.85,41.85s-41.85-18.77-41.85-41.85
		s18.77-41.85,41.85-41.85S291.85,222.85,291.85,245.93z"/>
	<path class="st1" d="M382.32,200.19c3.1,0,7.61,0.41,11.47,2.38c2.39,1.2,4.37,3.16,5.42,5.38c1.16,2.39,1.19,4.61,1.01,6.06
		c-0.24,1.72-0.78,3.12-1.55,4.08c-0.32,0.55-1.52,1.49-2.44,1.72c-0.27,0.06-0.54,0.1-0.81,0.1c-1.03,0-1.99-0.48-2.57-1.3
		c-0.55-0.77-0.69-1.74-0.38-2.66c0.42-1.23,1.17-1.99,1.77-2.61c0.95-0.96,1.42-1.45,0.56-3.28c-1.17-2.56-5.08-5.3-12.51-5.3
		c-6.09,0-13.32,1.9-20.94,5.49c-8.66,4.08-17.74,9.9-27.77,17.81c-3.56,2.81-5.76,4.92-7.52,6.62c-2.12,2.04-3.65,3.51-6.23,5.01
		c-3.78,2.14-8.14,3.27-12.64,3.27c-4.62,0-8.86-1.13-12.54-3.26c-5.68-3.28-4.27-7.91-0.78-5.12c3.64,2.91,8.09,4.49,13.01,4.49
		c10.03,0,20.49-6.94,20.64-18.54c-0.03-3.25-0.95-6.38-2.64-9.03c-0.98-1.5-1.99-2.68-3.08-3.61c-1.18-1.01-2.46-1.77-3.92-2.33
		c-1.43-0.55-2.96-0.83-4.54-0.83c-1.52,0-3.02,0.26-4.44,0.77c-1.43,0.51-2.76,1.27-3.95,2.25l-0.87,0.79
		c-0.09,0.09-0.79,0.88-0.79,0.88l-0.58,0.82l-0.19,0.33c-0.11,0.18-0.22,0.37-0.31,0.56c-1.3,2.64-1.37,5.85-0.19,8.41
		c0.6,1.34,1.47,2.5,2.58,3.48c1.01,0.83,2.34,1.43,3.57,1.58c0.39,0.06,0.76,0.09,1.12,0.09c2.34,0,4.65-1.18,5.88-3.01
		c0.65-1.01,0.96-2.28,0.84-3.48c-0.06-0.54-0.33-0.74-1.27-1.35c-0.48-0.31-1.04-0.67-1.68-1.19c-1.29-1.04-1.56-2.14-1.55-2.88
		c0.01-0.94,0.47-1.83,1.25-2.44c0.48-0.38,1.06-0.57,1.71-0.57c1.08,0,2.34,0.56,3.55,1.57c1.67,1.4,2.77,3.73,3.01,6.37
		c0.22,2.37-0.39,4.77-1.71,6.75c-2.23,3.21-5.93,5.12-9.93,5.12c-0.65,0-1.3-0.05-1.93-0.16c-2.23-0.34-4.27-1.28-6.05-2.8
		c-1.61-1.43-2.9-3.21-3.74-5.16c-1.73-3.88-1.58-8.52,0.38-12.41c0.15-0.31,0.33-0.61,0.52-0.92l0.25-0.43
		c0.34-0.49,0.68-0.95,1.01-1.36l0.36-0.39c0.19-0.22,0.39-0.43,0.69-0.73l1.14-1.01c1.65-1.33,3.45-2.34,5.4-3.01
		c1.86-0.64,3.81-0.97,5.79-0.97c2.2,0,4.32,0.4,6.3,1.19c1.85,0.71,3.72,1.85,5.24,3.2c1.38,1.2,2.64,2.7,3.83,4.57
		c2.1,3.36,3.21,7.29,3.21,11.36c-0.04,1.7-0.24,3.3-0.61,4.83l0.17-0.14c10.14-8.27,19.37-14.4,28.22-18.76
		c6.22-3.06,12.12-5.04,17.54-5.88C377.78,200.48,379.73,200.19,382.32,200.19z"/>
	<path class="st1" d="M117.68,200.19c-3.1,0-7.61,0.41-11.47,2.38c-2.39,1.2-4.37,3.16-5.42,5.38c-1.16,2.39-1.19,4.61-1.01,6.06
		c0.24,1.72,0.78,3.12,1.55,4.08c0.32,0.55,1.52,1.49,2.43,1.72c0.27,0.06,0.54,0.1,0.81,0.1c1.03,0,1.99-0.48,2.57-1.3
		c0.55-0.77,0.69-1.74,0.38-2.66c-0.42-1.23-1.17-1.99-1.77-2.61c-0.95-0.96-1.42-1.45-0.56-3.28c1.17-2.56,5.08-5.3,12.51-5.3
		c6.09,0,13.32,1.9,20.94,5.49c8.66,4.08,17.74,9.9,27.77,17.81c3.56,2.81,5.76,4.92,7.52,6.62c2.12,2.04,3.65,3.51,6.23,5.01
		c3.78,2.14,8.15,3.27,12.64,3.27c4.62,0,8.86-1.13,12.54-3.26c5.68-3.28,4.27-7.91,0.78-5.12c-3.64,2.91-8.09,4.49-13.01,4.49
		c-10.03,0-20.49-6.94-20.64-18.54c0.03-3.25,0.95-6.38,2.64-9.03c0.98-1.5,1.99-2.68,3.08-3.61c1.18-1.01,2.46-1.77,3.92-2.33
		c1.43-0.55,2.96-0.83,4.54-0.83c1.52,0,3.02,0.26,4.44,0.77c1.43,0.51,2.76,1.27,3.95,2.25l0.87,0.79
		c0.09,0.09,0.79,0.88,0.79,0.88l0.58,0.82l0.19,0.33c0.11,0.18,0.22,0.37,0.31,0.56c1.3,2.64,1.37,5.85,0.19,8.41
		c-0.6,1.34-1.47,2.5-2.58,3.48c-1.01,0.83-2.34,1.43-3.57,1.58c-0.39,0.06-0.76,0.09-1.12,0.09c-2.34,0-4.65-1.18-5.88-3.01
		c-0.65-1.01-0.96-2.28-0.84-3.48c0.06-0.54,0.33-0.74,1.27-1.35c0.47-0.31,1.04-0.67,1.68-1.19c1.29-1.04,1.56-2.14,1.55-2.88
		c-0.01-0.94-0.47-1.83-1.25-2.44c-0.48-0.38-1.06-0.57-1.71-0.57c-1.08,0-2.34,0.56-3.55,1.57c-1.67,1.4-2.77,3.73-3.01,6.37
		c-0.22,2.37,0.39,4.77,1.71,6.75c2.23,3.21,5.93,5.12,9.93,5.12c0.65,0,1.3-0.05,1.93-0.16c2.23-0.34,4.27-1.28,6.05-2.8
		c1.61-1.43,2.9-3.21,3.74-5.16c1.73-3.88,1.58-8.52-0.38-12.41c-0.15-0.31-0.33-0.61-0.52-0.92l-0.25-0.43
		c-0.34-0.49-0.68-0.95-1.01-1.36l-0.36-0.39c-0.19-0.22-0.39-0.43-0.69-0.73l-1.14-1.01c-1.65-1.33-3.45-2.34-5.4-3.01
		c-1.86-0.64-3.81-0.97-5.79-0.97c-2.2,0-4.32,0.4-6.3,1.19c-1.85,0.71-3.72,1.85-5.24,3.2c-1.38,1.2-2.64,2.7-3.83,4.57
		c-2.1,3.36-3.21,7.29-3.21,11.36c0.04,1.7,0.24,3.3,0.61,4.83l-0.17-0.14c-10.14-8.27-19.37-14.4-28.22-18.76
		c-6.22-3.06-12.12-5.04-17.54-5.88C122.22,200.48,120.27,200.19,117.68,200.19z"/>
	<text transform="matrix(1 0 0 1 77.7907 171.6774)" class="st0 st2 st3">Wine And Food</text>
</g>
<rect x="-159" y="58" class="st0" width="111" height="89"/>
</svg>
