<?xml version="1.0" encoding="utf-8"?>
<!-- Generator: Adobe Illustrator 24.0.2, SVG Export Plug-In . SVG Version: 6.00 Build 0)  -->
<svg version="1.1" id="Capa_1" xmlns="http://www.w3.org/2000/svg" xmlns:xlink="http://www.w3.org/1999/xlink" x="0px" y="0px"
	 viewBox="0 0 500 500" style="enable-background:new 0 0 500 500;" xml:space="preserve">
<style type="text/css">
	.st0{fill:#FFFFFF;}
</style>
<g>
	<g>
		<path class="st0" d="M-49.2,271c0-132.4-107.4-239.8-239.8-239.8S-528.8,138.6-528.8,271c0,119.7,87.7,218.9,202.4,236.9V340.3
			h-60.9V271h60.9v-52.8c0-60.1,35.8-93.3,90.6-93.3c26.2,0,53.7,4.7,53.7,4.7v59h-30.2c-29.8,0-39.1,18.5-39.1,37.4v45h66.5
			l-10.6,69.3h-55.9v167.6C-136.9,489.9-49.2,390.7-49.2,271z"/>
		<path class="st0" d="M-195.6,340.3L-185,271h-66.5v-45c0-19,9.3-37.4,39.1-37.4h30.2v-59c0,0-27.4-4.7-53.7-4.7
			c-54.8,0-90.6,33.2-90.6,93.3V271h-60.9v69.3h60.9v167.6c12.2,1.9,24.7,2.9,37.5,2.9s25.3-1,37.5-2.9V340.3H-195.6z"/>
	</g>
</g>
<g>
	<circle class="st0" cx="176" cy="777" r="239.8"/>
	<g>
		<g>
			<path class="st0" d="M250.4,686.3c-9.1,0-16.5,7.4-16.5,16.5s7.4,16.5,16.5,16.5c9.1,0,16.5-7.4,16.5-16.5
				C266.9,693.7,259.5,686.3,250.4,686.3z"/>
			<path class="st0" d="M177.1,707.4c-38.2,0-69.3,31.1-69.3,69.3c0,38.2,31.1,69.3,69.3,69.3s69.3-31.1,69.3-69.3
				S215.3,707.4,177.1,707.4z M177.1,821c-24.5,0-44.4-19.9-44.4-44.4c0-24.5,19.9-44.4,44.4-44.4s44.4,19.9,44.4,44.4
				S201.6,821,177.1,821z"/>
			<path class="st0" d="M232.1,917.3H119.9c-46.6,0-84.5-37.9-84.5-84.5V720.5c0-46.6,37.9-84.5,84.5-84.5h112.3
				c46.6,0,84.5,37.9,84.5,84.5v112.3C316.6,879.4,278.7,917.3,232.1,917.3z M119.9,662.5c-32,0-58,26-58,58v112.3c0,32,26,58,58,58
				h112.3c32,0,58-26,58-58V720.5c0-32-26-58-58-58H119.9z"/>
		</g>
	</g>
</g>
<g>
	<path class="st0" d="M480,104.8c-14.7,6.7-31,10.7-46.9,13.4c7.6-1.3,18.6-14.9,23.1-20.5c6.8-8.4,12.4-18,15.6-28.4
		c0.4-0.8,0.7-1.8-0.1-2.4c-1-0.4-1.7-0.2-2.5,0.2c-17.7,9.5-36.1,16.4-55.6,21.3c-1.6,0.4-2.8,0-3.8-1c-1.6-1.8-3.1-3.5-4.9-5
		c-8.2-7-17-12.5-26.9-16.5c-13-5.3-27.3-7.6-41.3-6.7c-13.7,0.9-27.1,4.7-39.2,11.1c-12.2,6.4-23,15.2-31.6,25.8
		c-8.9,11-15.5,24-18.9,37.8c-3.3,13.3-3,26.5-1,39.9c0.3,2.2,0.1,2.5-1.9,2.2c-76.4-11.4-139.7-38.7-191.2-97.3
		c-2.2-2.5-3.4-2.5-5.3,0.2C25,112.8,35.9,167,64,193.6c3.7,3.5,7.6,7.1,11.7,10.3c-1.5,0.3-20.2-1.7-36.9-10.3
		c-2.2-1.4-3.4-0.6-3.5,1.9c-0.2,3.7,0.1,7,0.6,10.9c4.3,34.2,28,65.8,60.4,78.1c3.8,1.6,8.1,3,12.3,3.7c-7.4,1.6-15,2.8-36.2,1.1
		c-2.6-0.5-3.6,0.8-2.6,3.3c15.9,43.4,50.3,56.3,76,63.6c3.4,0.6,6.9,0.6,10.3,1.4c-0.2,0.3-0.4,0.3-0.6,0.6
		c-8.5,13-38.1,22.7-51.9,27.5c-25.1,8.8-52.3,12.7-78.8,10.1c-4.2-0.6-5.1-0.6-6.3,0c-1.2,0.7-0.1,1.7,1.2,2.8
		c5.4,3.5,10.9,6.7,16.4,9.7c16.8,8.9,34.4,16,52.7,21.1c94.7,26.1,201.4,6.9,272.5-63.7c55.8-55.5,75.4-132,75.4-208.6
		c0-3,3.5-4.6,5.6-6.2c14.5-10.9,26.3-24,37.1-38.6c2.4-3.3,2.4-6.2,2.4-7.4c0-0.2,0-0.4,0-0.4C482,103.6,481.9,104,480,104.8z"/>
</g>
</svg>
