<?xml version="1.0" encoding="utf-8"?>
<!-- Generator: Adobe Illustrator 24.0.2, SVG Export Plug-In . SVG Version: 6.00 Build 0)  -->
<svg version="1.1" id="Capa_1" xmlns="http://www.w3.org/2000/svg" xmlns:xlink="http://www.w3.org/1999/xlink" x="0px" y="0px"
	 viewBox="0 0 500 500" style="enable-background:new 0 0 500 500;" xml:space="preserve">
<style type="text/css">
	.st0{fill:#FFFFFF;}
</style>
<g>
	<g>
		<path class="st0" d="M-49.2,271c0-132.4-107.4-239.8-239.8-239.8S-528.8,138.6-528.8,271c0,119.7,87.7,218.9,202.4,236.9V340.3
			h-60.9V271h60.9v-52.8c0-60.1,35.8-93.3,90.6-93.3c26.2,0,53.7,4.7,53.7,4.7v59h-30.2c-29.8,0-39.1,18.5-39.1,37.4v45h66.5
			l-10.6,69.3h-55.9v167.6C-136.9,489.9-49.2,390.7-49.2,271z"/>
	</g>
</g>
<g>
	<g>
		<g>
			<path class="st0" d="M372.3,101.4c-15,0-27.1,12.1-27.1,27.1c0,15,12.1,27.1,27.1,27.1c15,0,27.1-12.1,27.1-27.1
				C399.5,113.6,387.3,101.4,372.3,101.4z"/>
			<path class="st0" d="M251.9,136.2c-62.8,0-113.8,51.1-113.8,113.8c0,62.8,51.1,113.8,113.8,113.8S365.7,312.8,365.7,250
				S314.7,136.2,251.9,136.2z M251.9,322.9c-40.2,0-72.9-32.7-72.9-72.9s32.7-72.9,72.9-72.9s72.9,32.7,72.9,72.9
				S292.1,322.9,251.9,322.9z"/>
			<path class="st0" d="M342.3,481.1H157.7c-76.5,0-138.8-62.3-138.8-138.8V157.7c0-76.5,62.3-138.8,138.8-138.8h184.5
				c76.5,0,138.8,62.3,138.8,138.8v184.5C481.1,418.8,418.8,481.1,342.3,481.1z M157.7,62.4c-52.6,0-95.3,42.8-95.3,95.3v184.5
				c0,52.6,42.8,95.3,95.3,95.3h184.5c52.6,0,95.3-42.8,95.3-95.3V157.7c0-52.6-42.8-95.3-95.3-95.3H157.7z"/>
		</g>
	</g>
</g>
</svg>
