<?xml version="1.0" encoding="utf-8"?>
<!-- Generator: Adobe Illustrator 24.0.2, SVG Export Plug-In . SVG Version: 6.00 Build 0)  -->
<svg version="1.1" id="Capa_1" xmlns="http://www.w3.org/2000/svg" xmlns:xlink="http://www.w3.org/1999/xlink" x="0px" y="0px"
	 viewBox="0 0 16 16" style="enable-background:new 0 0 16 16;" xml:space="preserve">
<style type="text/css">
	.st0{fill:#424E56;}
</style>
<g>
	<path class="st0" d="M8,0.29C3.74,0.29,0.29,3.74,0.29,8S3.74,15.71,8,15.71s7.71-3.45,7.71-7.71S12.26,0.29,8,0.29z M8,15.06
		c-3.89,0-7.06-3.17-7.06-7.06S4.11,0.94,8,0.94S15.06,4.11,15.06,8C15.06,11.89,11.89,15.06,8,15.06z"/>
	<path class="st0" d="M3.24,12.76c-0.94-0.94,2.27-2.85,3.91-4.31c0,0,0.01,0,0.01,0c0.14,0,0.26-0.02,0.35-0.04
		c0.06,0.06,0.13,0.14,0.23,0.24C6.26,10.21,4.22,13.74,3.24,12.76z"/>
	<path class="st0" d="M12.59,12.54c-0.75,0.75-1.92-1.3-3.4-2.86C8.13,8.56,7.61,8.02,7.61,8.02l0,0L7.59,8.03
		c0,0-0.72,0.33-1.4-0.36C5.82,7.32,2.8,3.91,3.31,3.4c0,0,0.01-0.01,0.01-0.01c0,0,0-0.01,0.01-0.01c0.3-0.3,0.95,0.21,1.58,0.81
		C4.92,4.2,4.93,4.21,4.94,4.22c0.05,0.05,0.1,0.09,0.15,0.14C5.1,4.37,5.11,4.39,5.12,4.4c0.06,0.06,0.11,0.11,0.17,0.16
		C6.02,5.3,8.17,7.45,8.17,7.45C11.48,10.76,13.31,11.83,12.59,12.54z"/>
	<path class="st0" d="M11.56,6.23c-0.19,0.2-0.38,0.37-0.53,0.5C10.3,7.34,9.63,7.37,9.18,7.14c-0.12,0.12-0.25,0.26-0.4,0.42
		C8.66,7.45,8.56,7.35,8.44,7.23c0.15-0.15,0.3-0.29,0.42-0.4C8.63,6.38,8.65,5.71,9.27,4.96c0.12-0.15,0.3-0.33,0.5-0.53
		c0.59-0.59,1.43-1.28,1.92-1.37c0.02,0,0.05,0.01,0.06,0.03c0.01,0.02,0,0.05-0.02,0.06c-0.01,0.01-0.02,0.02-0.03,0.02
		c0,0,0,0.01-0.01,0.01c-0.53,0.45-1.18,1.07-1.65,1.53C9.78,4.99,9.58,5.2,9.5,5.3C9.44,5.38,9.44,5.47,9.52,5.52
		C9.6,5.58,9.7,5.56,9.78,5.49c0.06-0.06,0.13-0.13,0.21-0.21c0.63-0.63,1.81-1.76,2.16-1.85c0.03-0.01,0.13,0.05,0.05,0.12
		c-0.19,0.19-0.38,0.39-0.59,0.59c-0.6,0.6-1.25,1.24-1.8,1.79C9.71,6.04,9.7,6.14,9.78,6.22c0.08,0.08,0.18,0.07,0.3-0.05
		c0.55-0.55,1.19-1.19,1.78-1.79c0.2-0.2,0.4-0.4,0.59-0.59c0.07-0.07,0.13,0.03,0.12,0.05C12.48,4.2,11.37,5.37,10.73,6
		c-0.08,0.08-0.15,0.15-0.22,0.22c-0.08,0.08-0.09,0.19-0.04,0.26c0.06,0.08,0.14,0.09,0.22,0.02c0.1-0.08,0.31-0.28,0.58-0.54
		c0.47-0.47,1.08-1.12,1.53-1.65c0,0,0.01,0,0.01-0.01c0.01-0.01,0.02-0.02,0.02-0.03c0.02-0.02,0.04-0.03,0.06-0.02
		c0.02,0.01,0.03,0.03,0.03,0.06C12.84,4.8,12.15,5.64,11.56,6.23z"/>
</g>
</svg>
